# xmcd
#
# Track frame offsets: 
#        150
#        13091
#        26135
#        42256
#        59098
#        72475
#        119904
#        135815
#        151829
#        179489
#        206094
#
# Disc length: 3323 seconds
#
# Revision: 0
# Processed by: cddbd v1.5.2PL0 Copyright (c) Steve Scherf et al.
# Submitted via: ExactAudioCopy v0.99pb4
#
DISCID=a40cf90b
DTITLE=Gary Moore - Bad For You Baby (DTS)
DYEAR=2008
DGENRE=Blues Rock
TTITLE0=1. Bad For You Baby
TTITLE1=2. Down The Line
TTITLE2=3. Umbrella Man
TTITLE3=4. Holding On
TTITLE4=5. Walking Thru The Park
TTITLE5=6. I Love You More Than You'll ever Know
TTITLE6=7. Mojo Boogie
TTITLE7=8. Someday Baby
TTITLE8=9. Did You Ever Feel Lonely?
TTITLE9=10. Preacher Man
TTITLE10=11. Trouble Ain't Far Behind
EXTD=
EXTT0=
EXTT1=
EXTT2=
EXTT3=
EXTT4=
EXTT5=
EXTT6=
EXTT7=
EXTT8=
EXTT9=
EXTT10=
PLAYORDER=
